<?xml version="1.0" standalone="no"?>
<!DOCTYPE svg PUBLIC "-//W3C//DTD SVG 20010904//EN"
 "http://www.w3.org/TR/2001/REC-SVG-20010904/DTD/svg10.dtd">
<svg version="1.0" xmlns="http://www.w3.org/2000/svg"
 width="626.000000pt" height="390.000000pt" viewBox="0 0 626.000000 390.000000"
 preserveAspectRatio="xMidYMid meet">
<metadata>
Created by potrace 1.16, written by Peter Selinger 2001-2019
</metadata>
<g transform="translate(0.000000,390.000000) scale(0.100000,-0.100000)"
fill="#000000" stroke="none">
<path d="M0 1950 l0 -1940 3125 0 3125 0 0 1940 0 1940 -3125 0 -3125 0 0
-1940z m3518 1627 c11 -55 -49 -132 -127 -166 -34 -14 -54 -31 -65 -52 -22
-44 -21 -46 25 -53 68 -11 133 -44 153 -77 17 -28 17 -32 3 -47 -15 -14 -15
-13 -10 6 9 37 -22 70 -80 86 -96 27 -120 25 -166 -17 -34 -31 -48 -37 -85
-37 -61 0 -78 22 -44 56 18 19 43 28 95 36 61 10 73 15 87 39 21 36 21 37 -11
42 -27 4 -27 4 4 6 29 1 33 6 57 69 35 91 77 134 125 130 25 -2 37 -8 39 -21z
m222 -46 c0 -6 -5 -13 -10 -16 -12 -7 -70 -106 -70 -118 0 -5 12 1 26 12 30
24 74 28 74 8 0 -16 -27 -41 -52 -50 -22 -8 -22 -17 -4 -42 19 -26 41 -14 77
45 17 28 44 57 59 65 29 15 60 11 60 -7 0 -17 -49 -58 -70 -58 -15 0 -20 -6
-20 -26 0 -22 4 -25 27 -22 18 2 35 15 50 37 13 19 23 30 23 25 0 -12 -30 -56
-44 -66 -18 -13 -63 -9 -75 6 -11 13 -15 12 -32 -5 -21 -21 -59 -25 -77 -7
-21 21 -13 47 18 63 32 16 40 35 16 35 -27 0 -75 -50 -82 -86 -4 -21 -12 -34
-21 -34 -10 0 -13 6 -9 17 6 16 6 16 -12 0 -23 -21 -48 -22 -60 -2 -7 14 -11
13 -27 -5 -22 -24 -38 -25 -55 -5 -17 21 -5 62 30 96 22 23 37 29 67 28 27 -1
31 -3 13 -6 -30 -6 -67 -38 -86 -76 -34 -65 21 -52 58 13 14 23 31 40 41 40
17 0 17 -2 3 -22 -17 -23 -22 -68 -8 -68 8 0 64 92 97 160 27 56 75 100 75 71z
m-1071 -42 c45 -7 67 -7 75 1 5 5 17 10 26 10 13 0 13 -2 0 -10 -8 -5 -12 -11
-10 -14 9 -8 125 -11 138 -3 6 5 12 4 12 -2 0 -6 -12 -13 -27 -16 -44 -10 -53
-17 -84 -73 -38 -69 -37 -77 7 -47 55 37 64 34 40 -13 -45 -89 -16 -99 41 -15
39 60 83 87 104 66 14 -14 -3 -48 -28 -57 -15 -6 -15 -5 1 13 30 33 13 49 -19
17 -22 -22 -25 -30 -14 -37 11 -7 10 -9 -4 -9 -13 0 -17 -6 -15 -22 5 -37 47
-30 75 11 13 19 23 29 23 23 0 -6 -12 -24 -26 -41 -29 -34 -67 -41 -94 -16
-15 14 -18 14 -30 0 -16 -19 -56 -20 -63 -1 -3 7 1 26 9 41 8 15 12 31 8 34
-6 6 -64 -53 -81 -84 -6 -9 -15 -16 -21 -14 -7 3 8 45 38 108 28 57 50 107 50
112 0 5 -15 9 -34 9 -31 0 -35 -4 -50 -47 -59 -164 -85 -197 -165 -222 -53
-15 -155 -14 -195 3 -67 28 -88 102 -41 146 14 13 27 21 30 18 3 -2 -4 -13
-15 -23 -31 -28 -26 -78 10 -109 74 -61 220 -37 284 47 29 38 99 187 92 195
-3 2 -36 7 -74 10 -111 7 -192 -30 -192 -89 0 -43 64 -55 100 -19 29 29 38 25
10 -5 -44 -47 -140 -23 -140 34 0 28 42 73 81 87 43 16 87 17 168 3z m2676
-58 c353 -98 578 -349 579 -646 1 -296 -234 -553 -592 -646 -100 -27 -292 -36
-403 -20 -323 48 -569 227 -667 489 -20 54 -25 86 -26 167 -1 111 12 168 57
259 104 209 304 348 597 415 25 5 119 9 210 7 132 -3 181 -8 245 -25z m-2652
-351 c42 -33 43 -98 1 -123 -10 -6 -6 -14 17 -35 49 -43 39 -125 -18 -151 -13
-6 -60 -11 -103 -11 l-80 0 0 170 0 170 79 0 c63 0 83 -4 104 -20z m367 0 c0
-11 -7 -20 -15 -20 -8 0 -15 -4 -15 -10 0 -5 -13 -10 -30 -10 -16 0 -30 5 -30
10 0 6 -4 10 -10 10 -5 0 -10 -20 -10 -44 0 -44 0 -45 38 -48 30 -2 38 -7 40
-25 3 -21 -1 -23 -37 -23 l-41 0 0 -60 0 -60 60 0 c53 0 60 -2 60 -20 0 -19
-7 -20 -100 -20 l-100 0 0 170 0 170 95 0 c88 0 95 -1 95 -20z m320 0 c0 -11
-7 -20 -15 -20 -8 0 -15 -4 -15 -10 0 -5 -13 -10 -30 -10 -16 0 -30 5 -30 10
0 6 -4 10 -10 10 -5 0 -10 -20 -10 -44 0 -44 0 -45 38 -48 30 -2 38 -7 40 -25
3 -21 -1 -23 -37 -23 l-41 0 0 -60 0 -60 60 0 c53 0 60 -2 60 -20 0 -19 -7
-20 -100 -20 l-100 0 0 170 0 170 95 0 c88 0 95 -1 95 -20z m322 9 c11 -6 26
-26 34 -46 19 -43 5 -93 -33 -123 -18 -14 -23 -24 -16 -32 5 -7 24 -39 42 -70
l32 -58 -39 0 c-39 0 -40 1 -76 70 -21 39 -44 70 -52 70 -11 0 -14 -16 -14
-70 l0 -70 -35 0 -35 0 0 170 0 170 86 0 c47 0 94 -5 106 -11z m-214 -646
c-229 -2 -607 -2 -840 0 -233 1 -45 2 417 2 462 0 652 -1 423 -2z m-2091 -839
c191 -39 337 -116 463 -243 163 -164 222 -354 171 -553 -11 -42 -32 -100 -47
-130 -24 -48 -106 -158 -136 -183 -118 -98 -218 -155 -338 -193 -118 -37 -181
-46 -330 -45 -123 0 -160 5 -245 27 -172 45 -309 121 -420 234 -120 122 -177
255 -179 417 -1 125 26 217 96 321 115 173 311 298 544 348 96 20 324 20 421
0z m3878 -174 c94 -6 231 -19 307 -30 170 -25 419 -80 361 -80 -6 0 -59 11
-119 24 -231 52 -373 68 -662 73 -350 7 -575 -14 -850 -78 -86 -20 -122 -24
-87 -9 78 31 435 87 637 99 194 12 226 12 413 1z m-1902 -145 c26 49 26 50 27
18 0 -17 -5 -44 -10 -59 -6 -15 -9 -28 -8 -30 2 -1 22 11 46 27 51 35 53 26 6
-29 -35 -41 -23 -50 19 -14 9 8 17 12 17 8 0 -4 10 -1 23 5 21 11 21 11 -3
-16 -14 -15 -47 -38 -75 -51 -82 -39 -159 -30 -242 29 -49 35 -57 55 -13 32
16 -8 42 -20 56 -25 24 -10 24 -8 -10 32 -48 55 -45 65 6 28 22 -17 43 -29 44
-27 2 2 -1 19 -6 38 -6 18 -10 47 -10 64 1 28 2 27 22 -17 11 -27 24 -48 28
-48 4 0 11 23 14 52 11 79 20 80 32 3 l10 -70 27 50z m1578 11 c-14 -25 -8
-80 11 -103 22 -27 0 -43 -58 -43 l-56 0 6 35 c6 31 4 35 -14 35 -23 0 -25
-12 -8 -40 16 -26 10 -30 -56 -37 -52 -5 -56 -4 -56 16 0 11 4 21 9 21 13 0
-9 91 -26 108 -20 21 -7 29 60 35 l59 6 -6 -35 c-6 -30 -4 -34 14 -34 11 0 20
7 20 15 0 8 -4 15 -10 15 -5 0 -10 9 -10 20 0 16 8 19 58 22 68 4 80 -3 63
-36z m179 24 c0 -11 -5 -20 -11 -20 -9 0 -10 -21 -6 -70 l6 -70 -54 0 c-55 0
-76 13 -56 33 14 14 15 107 1 107 -5 0 -10 9 -10 20 0 18 7 20 65 20 58 0 65
-2 65 -20z m213 4 c22 -5 27 -11 25 -27 -3 -23 -31 -28 -75 -13 -13 4 -23 3
-23 -2 0 -6 12 -13 28 -17 37 -9 62 -34 62 -61 0 -34 -36 -54 -95 -53 -74 1
-99 11 -103 38 -4 23 -2 24 55 18 l58 -5 -52 23 c-47 21 -53 27 -53 53 0 56
55 71 173 46z m170 -14 c14 0 16 -5 11 -25 -7 -30 -1 -31 34 -5 25 18 33 19
87 9 119 -21 136 -28 125 -49 -5 -10 -10 -26 -10 -36 0 -13 3 -14 15 -4 8 7
15 20 15 30 0 9 2 19 5 22 7 6 95 -13 95 -21 0 -12 -16 -27 -45 -45 -51 -32
-76 -58 -65 -70 5 -7 5 -18 0 -26 -7 -11 -17 -12 -64 -1 -60 13 -65 20 -40 46
18 17 13 54 -12 93 -14 21 -16 21 -44 7 -35 -18 -37 -27 -10 -65 30 -42 17
-63 -34 -55 -22 4 -42 8 -42 9 -1 0 -8 15 -17 31 l-15 30 -7 -28 c-7 -26 -11
-28 -38 -23 -16 3 -38 6 -48 6 -22 0 -26 35 -5 43 16 6 29 89 15 98 -5 3 -7
14 -3 23 6 15 14 17 43 12 20 -3 44 -6 54 -6z m-858 -52 c-16 -148 -10 -135
-63 -141 -37 -5 -50 -2 -59 11 -43 61 -42 60 -43 15 0 -45 -2 -46 -70 -58 -32
-5 -37 -3 -59 30 -14 20 -39 53 -58 73 -18 20 -33 39 -33 42 0 7 91 30 117 30
11 0 14 -7 11 -24 -3 -13 4 -39 14 -57 l19 -34 -4 62 c-4 68 -6 65 59 78 29 5
32 3 60 -47 28 -52 29 -52 32 -23 2 18 -2 33 -12 41 -9 6 -16 18 -16 27 0 15
9 17 93 25 16 2 17 -4 12 -50z m-865 -103 c8 -23 -71 -207 -92 -213 -35 -11
-53 -87 -25 -110 10 -8 13 -2 13 29 1 30 10 48 39 80 43 48 88 140 88 181 0
15 4 25 9 22 4 -3 8 -13 8 -22 0 -27 -58 -143 -94 -187 -39 -47 -49 -74 -36
-95 9 -13 14 -10 35 14 13 17 27 41 30 55 17 71 87 131 152 131 31 0 61 -15
50 -26 -3 -4 -13 -1 -21 5 -22 19 -51 5 -95 -46 -40 -45 -60 -100 -45 -124 4
-7 14 7 26 38 21 58 83 127 105 119 8 -3 21 -6 29 -6 12 0 10 -8 -6 -40 -20
-40 -27 -100 -11 -100 5 0 13 19 19 43 6 23 18 51 27 62 18 22 16 12 -10 -48
-20 -47 -2 -39 25 11 13 22 18 27 14 13 -3 -13 -15 -39 -26 -57 -32 -55 -98
-60 -98 -7 l0 28 -31 -38 c-21 -25 -39 -37 -56 -37 -15 0 -36 -8 -47 -17 -21
-18 -21 -18 -4 2 10 13 14 26 9 34 -6 10 -14 7 -35 -14 -21 -21 -34 -26 -64
-23 -25 2 -43 -3 -54 -14 -10 -10 -26 -18 -35 -17 -12 0 -9 4 9 10 29 11 41
31 31 55 -4 12 -11 9 -32 -16 -15 -18 -36 -32 -51 -32 -14 -1 -36 -10 -49 -20
-13 -10 -29 -18 -35 -18 -6 1 1 8 17 16 29 16 31 21 18 42 -6 10 -12 7 -25
-12 -12 -19 -25 -26 -49 -26 -17 0 -41 -7 -51 -15 -11 -8 -25 -15 -30 -15 -6
1 1 8 17 16 29 16 32 25 17 54 -7 13 -2 34 18 81 28 67 37 79 63 79 14 0 12
-8 -9 -52 -26 -56 -41 -128 -25 -128 5 0 16 19 23 43 16 55 48 117 60 117 5 0
1 -15 -10 -33 -28 -47 -51 -117 -39 -117 13 0 58 96 65 143 5 31 11 37 30 37
13 0 24 -1 24 -3 0 -2 -11 -37 -25 -78 -24 -69 -26 -99 -8 -99 4 0 19 37 32
82 14 45 27 76 29 70 3 -10 -13 -69 -36 -129 -2 -7 0 -13 5 -13 15 0 58 89 77
159 25 88 51 147 81 177 29 29 54 28 65 -1z m-900 -31 c0 -3 -10 -14 -22 -25
-20 -16 -21 -18 -5 -19 10 0 29 7 42 16 15 10 25 12 25 5 0 -6 -4 -11 -10 -11
-5 0 -10 -4 -10 -10 0 -6 31 -10 74 -10 55 0 79 4 91 16 9 9 19 13 22 10 4 -4
-1 -14 -10 -24 -14 -14 -35 -17 -106 -16 -49 1 -101 4 -115 8 -32 8 -40 -7
-81 -154 -42 -150 -81 -207 -170 -252 -75 -38 -228 -52 -313 -29 -83 23 -134
94 -124 173 4 30 47 78 71 78 14 -1 14 -2 1 -13 -76 -59 -63 -152 27 -199 68
-36 117 -42 200 -24 115 24 188 81 240 188 54 111 96 229 85 240 -6 6 -60 8
-134 6 -109 -3 -129 -6 -173 -29 -113 -57 -126 -155 -23 -166 54 -6 82 7 108
50 13 21 20 26 20 15 0 -10 -13 -32 -29 -50 -27 -30 -34 -33 -90 -33 -53 0
-64 4 -88 27 -34 34 -37 90 -8 131 27 37 108 74 177 82 31 4 105 1 163 -5 104
-13 107 -13 128 8 21 21 37 28 37 16z m2515 -74 c123 -16 355 -62 355 -71 0
-4 -26 -1 -57 7 -233 56 -548 83 -785 66 -159 -12 -345 -38 -460 -66 -32 -7
-58 -10 -58 -6 0 15 345 73 500 84 91 6 419 -3 505 -14z m-2087 -140 c-33 -69
-48 -135 -29 -129 7 3 23 35 36 73 13 39 32 77 41 85 18 17 18 17 -12 -49 -12
-25 -25 -56 -29 -70 -8 -25 -8 -25 14 -6 11 11 21 14 21 8 0 -13 -58 -62 -74
-62 -19 0 -44 23 -48 44 -2 12 -14 -12 -30 -57 -15 -42 -23 -77 -18 -77 4 0
42 6 82 14 83 16 297 45 558 76 174 21 322 50 362 71 14 8 18 8 14 0 -19 -29
-194 -65 -531 -106 -115 -15 -274 -37 -352 -51 -78 -13 -144 -24 -147 -24 -2
0 -7 -18 -11 -40 -4 -22 -11 -40 -17 -40 -6 0 -8 6 -5 14 3 8 11 34 17 58 34
132 122 315 155 321 11 2 23 5 26 6 3 0 -8 -26 -23 -59z m-114 34 c20 -8 21
-24 1 -24 -37 0 -100 -69 -120 -129 -13 -43 18 -18 56 45 27 44 42 60 62 62
l25 3 -18 -36 c-10 -21 -36 -91 -57 -156 -37 -116 -58 -145 -70 -99 -4 13 -11
19 -22 16 -9 -3 -68 -17 -131 -31 -63 -15 -172 -42 -243 -61 -71 -19 -131 -33
-133 -31 -5 5 215 68 359 103 183 45 174 41 186 77 9 23 9 33 1 35 -7 3 -3 10
8 18 11 7 25 27 31 44 l10 31 -34 -37 c-23 -24 -41 -35 -57 -33 -13 2 -36 -5
-51 -15 -15 -10 -30 -16 -34 -12 -3 3 -2 6 3 6 20 1 44 28 38 44 -5 14 -11 12
-40 -14 -39 -33 -77 -39 -112 -14 -64 44 18 200 102 192 23 -2 32 -9 34 -25 4
-28 -50 -82 -91 -90 -24 -5 -28 -10 -25 -37 3 -26 7 -31 33 -34 23 -2 37 4 59
27 16 17 30 39 31 48 5 37 27 83 41 83 8 0 14 3 14 8 0 28 100 53 144 36z
m1863 -130 c33 -13 43 -22 43 -40 0 -12 -5 -26 -10 -29 -6 -4 1 -16 17 -28 36
-28 43 -38 42 -62 -1 -17 -2 -17 -6 -2 -2 9 -9 17 -15 17 -5 0 -8 -7 -4 -15 3
-8 1 -15 -5 -15 -6 0 -18 -9 -27 -20 -10 -10 -30 -22 -47 -25 -17 -4 -25 -3
-19 2 22 17 9 72 -17 73 -12 0 -15 -69 -4 -75 5 -3 -3 -2 -20 1 -36 7 -55 21
-55 41 0 12 -3 13 -15 3 -20 -17 -38 -2 -31 26 5 17 2 24 -8 24 -8 0 -16 4
-18 10 -5 14 -68 25 -68 12 0 -6 15 -16 33 -22 32 -10 32 -10 -8 -5 -70 8 -75
10 -75 20 0 6 9 10 20 10 10 0 22 4 26 8 24 23 116 -11 134 -51 8 -20 14 -22
23 -13 9 10 4 19 -25 43 -21 16 -38 39 -38 49 0 18 10 23 38 20 6 -1 12 3 12
8 0 9 64 49 80 51 2 0 24 -7 47 -16z"/>
<path d="M4955 3439 c-204 -26 -412 -124 -531 -251 -36 -38 -114 -147 -114
-160 0 -4 46 -8 103 -8 l102 0 22 34 c34 52 134 131 216 170 180 85 393 96
581 29 123 -43 234 -120 287 -197 l24 -36 103 0 c56 0 102 2 102 5 0 3 -12 24
-26 48 -126 201 -353 332 -634 367 -96 11 -136 11 -235 -1z"/>
<path d="M4985 3274 c-11 -2 -45 -9 -75 -15 -116 -23 -251 -98 -326 -182 l-47
-52 272 -3 c149 -1 394 -1 543 0 l273 3 -65 65 c-114 115 -269 178 -450 185
-58 2 -114 2 -125 -1z"/>
<path d="M4285 2967 c-40 -97 -38 -255 6 -372 l20 -55 769 0 769 0 21 57 c41
110 44 251 7 358 l-14 40 -782 3 -782 2 -14 -33z"/>
<path d="M4330 2511 c0 -5 25 -41 55 -79 115 -147 316 -258 529 -292 97 -16
330 -8 410 14 153 43 292 117 384 206 51 49 122 139 122 154 0 3 -45 6 -100 6
l-100 0 -61 -60 c-73 -72 -203 -141 -314 -165 -115 -26 -314 -17 -416 18 -101
35 -192 89 -257 154 l-53 53 -100 0 c-54 0 -99 -4 -99 -9z"/>
<path d="M4607 2472 c261 -238 685 -238 946 0 l52 47 -525 0 -525 0 52 -47z
m585 -26 c15 -33 4 -56 -26 -56 -14 0 -41 -7 -60 -16 -32 -16 -37 -16 -69 0
-39 18 -90 73 -81 87 3 5 55 9 115 9 106 0 110 -1 121 -24z"/>
<path d="M1095 1604 c-158 -22 -247 -50 -370 -113 -170 -87 -318 -265 -356
-426 -17 -75 -15 -201 5 -270 134 -459 791 -672 1276 -413 410 218 499 658
196 968 -115 117 -266 196 -450 236 -71 15 -248 26 -301 18z m320 -176 c198
-59 360 -203 409 -365 11 -33 -12 -29 -25 5 -59 158 -189 276 -374 338 -99 33
-259 43 -368 24 -218 -38 -403 -173 -467 -340 -15 -40 -27 -56 -35 -48 -10 9
26 90 66 149 83 123 228 214 409 254 97 22 283 14 385 -17z m-826 -635 c53
-152 229 -292 426 -339 99 -24 267 -21 368 5 173 45 326 161 394 297 34 70 63
100 47 52 -53 -175 -246 -328 -470 -374 -103 -22 -301 -14 -390 14 -147 47
-283 144 -351 250 -43 67 -67 132 -50 132 7 0 19 -17 26 -37z"/>
</g>
</svg>
